<svg width="198" height="92" viewBox="0 0 198 92" fill="none" xmlns="http://www.w3.org/2000/svg">
<path d="M34.9623 40.0513H35.9173L38.6389 37.31L38.7726 36.1462C37.2135 34.7601 35.3293 33.7972 33.298 33.3485C31.2668 32.8998 29.1555 32.9801 27.1636 33.5818C25.1717 34.1835 23.365 35.2868 21.9141 36.7874C20.4632 38.2879 19.4161 40.1363 18.8716 42.1578C19.1748 42.0327 19.5106 42.0124 19.8265 42.1001L25.2697 41.196C25.2697 41.196 25.5466 40.7343 25.6899 40.7631C26.8562 39.4729 28.468 38.6806 30.1953 38.5483C31.9226 38.4159 33.6348 38.9537 34.9814 40.0513H34.9623Z" fill="#EA4335"/>
<path d="M42.516 42.1578C41.8905 39.8374 40.6061 37.7514 38.8204 36.1558L35.0007 40.0032C35.7967 40.6584 36.4347 41.4871 36.8665 42.4269C37.2982 43.3666 37.5125 44.3928 37.4931 45.4282V46.1111C37.9395 46.1111 38.3816 46.1996 38.794 46.3717C39.2065 46.5438 39.5812 46.796 39.8969 47.114C40.2126 47.432 40.463 47.8095 40.6339 48.2249C40.8047 48.6404 40.8926 49.0856 40.8926 49.5353C40.8926 49.985 40.8047 50.4303 40.6339 50.8457C40.463 51.2612 40.2126 51.6387 39.8969 51.9566C39.5812 52.2746 39.2065 52.5268 38.794 52.6989C38.3816 52.871 37.9395 52.9596 37.4931 52.9596H30.6939L30.0159 53.6521V57.7593L30.6939 58.4422H37.4931C39.3917 58.4571 41.2447 57.856 42.7779 56.7279C44.3111 55.5998 45.4431 54.0046 46.0065 52.1783C46.5698 50.3519 46.5346 48.3914 45.906 46.5868C45.2774 44.7822 44.0888 43.2293 42.516 42.1578V42.1578Z" fill="#4285F4"/>
<path d="M23.885 58.4037H30.6842V52.9211H23.885C23.4006 52.921 22.9219 52.816 22.4812 52.6133L21.5263 52.9115L18.7856 55.6528L18.5469 56.6146C20.0838 57.7836 21.9591 58.4121 23.885 58.4037V58.4037Z" fill="#34A853"/>
<path d="M23.8851 40.619C22.0429 40.63 20.2501 41.2204 18.7571 42.3076C17.2641 43.3948 16.1456 44.9245 15.5576 46.6832C14.9697 48.4418 14.9417 50.3414 15.4777 52.1168C16.0136 53.8922 17.0867 55.4546 18.547 56.5859L22.4909 52.6134C21.9897 52.3853 21.551 52.0382 21.2123 51.6018C20.8736 51.1653 20.645 50.6526 20.5463 50.1077C20.4475 49.5627 20.4815 49.0018 20.6453 48.473C20.8091 47.9442 21.0979 47.4633 21.4868 47.0716C21.8756 46.6799 22.3531 46.389 22.8781 46.2241C23.4031 46.0591 23.96 46.0248 24.501 46.1243C25.042 46.2237 25.551 46.4539 25.9843 46.7951C26.4176 47.1363 26.7623 47.5782 26.9887 48.083L30.9326 44.1105C30.1048 43.0205 29.0379 42.1381 27.8153 41.5324C26.5927 40.9267 25.2476 40.6141 23.8851 40.619V40.619Z" fill="#FBBC05"/>
<path d="M64.5083 54.5754C63.3376 54.5904 62.1761 54.3673 61.0931 53.9194C60.0101 53.4715 59.028 52.808 58.2057 51.9688C57.3574 51.1651 56.6842 50.1926 56.2289 49.113C55.7735 48.0334 55.5459 46.8703 55.5605 45.6974C55.5465 44.5246 55.7744 43.3616 56.2297 42.2821C56.685 41.2026 57.3579 40.23 58.2057 39.426C59.024 38.578 60.0043 37.9057 61.0874 37.4494C62.1706 36.9932 63.3342 36.7625 64.5083 36.7713C65.6269 36.7562 66.7374 36.9654 67.7751 37.3864C68.8128 37.8075 69.7571 38.4321 70.553 39.224L68.8533 40.965C67.6892 39.8319 66.1269 39.2093 64.5083 39.2336C63.6686 39.2233 62.836 39.3889 62.0633 39.7201C61.2906 40.0513 60.5948 40.5407 60.02 41.1574C59.4227 41.7543 58.9515 42.4668 58.6347 43.252C58.318 44.0372 58.1623 44.8788 58.177 45.7262C58.17 46.564 58.3295 47.3947 58.646 48.1694C58.9625 48.9441 59.4297 49.6473 60.02 50.2374C61.2026 51.4244 62.7984 52.0997 64.4678 52.1195C66.1372 52.1392 67.7484 51.5019 68.9583 50.3432C69.7073 49.517 70.1669 48.4662 70.2666 47.3518H64.5369V44.8894H72.6444C72.724 45.3853 72.756 45.8878 72.7399 46.3899C72.7903 47.4291 72.6309 48.4679 72.2715 49.4433C71.912 50.4187 71.3599 51.3106 70.6485 52.0649C69.8576 52.8944 68.902 53.5467 67.844 53.9792C66.786 54.4118 65.6494 54.6149 64.5083 54.5754V54.5754ZM83.3588 52.9402C82.2707 53.9908 80.8218 54.5773 79.3146 54.5773C77.8074 54.5773 76.3585 53.9908 75.2705 52.9402C74.7289 52.4113 74.3024 51.7748 74.018 51.0711C73.7336 50.3674 73.5975 49.6118 73.6184 48.8523C73.5981 48.0929 73.7345 47.3375 74.0188 46.6338C74.3032 45.9302 74.7294 45.2936 75.2705 44.7644C76.3596 43.716 77.8081 43.131 79.3146 43.131C80.8211 43.131 82.2696 43.716 83.3588 44.7644C83.8999 45.2936 84.3261 45.9302 84.6104 46.6338C84.8948 47.3375 85.0311 48.0929 85.0109 48.8523C85.0305 49.6125 84.8929 50.3685 84.6069 51.0723C84.3208 51.7761 83.8925 52.4122 83.3492 52.9402H83.3588ZM77.0562 51.3339C77.3456 51.6452 77.6954 51.8934 78.0838 52.063C78.4723 52.2327 78.8912 52.3202 79.3146 52.3202C79.738 52.3202 80.157 52.2327 80.5454 52.063C80.9339 51.8934 81.2837 51.6452 81.5731 51.3339C81.8886 51.0054 82.1357 50.6166 82.2997 50.1904C82.4637 49.7642 82.5413 49.3092 82.528 48.8523C82.5421 48.3939 82.4648 47.9372 82.3008 47.5094C82.1368 47.0815 81.8894 46.691 81.5731 46.3611C81.2798 46.053 80.9277 45.8078 80.538 45.6403C80.1482 45.4728 79.7288 45.3864 79.3051 45.3864C78.8813 45.3864 78.462 45.4728 78.0722 45.6403C77.6824 45.8078 77.3303 46.053 77.0371 46.3611C76.7208 46.691 76.4734 47.0815 76.3093 47.5094C76.1453 47.9372 76.0681 48.3939 76.0822 48.8523C76.0701 49.3099 76.1492 49.7653 76.3149 50.1915C76.4805 50.6177 76.7294 51.0062 77.0466 51.3339H77.0562ZM95.7921 52.9402C94.7041 53.9908 93.2552 54.5773 91.748 54.5773C90.2408 54.5773 88.7918 53.9908 87.7038 52.9402C87.1622 52.4113 86.7357 51.7748 86.4513 51.0711C86.1669 50.3674 86.0309 49.6118 86.0517 48.8523C86.0314 48.0929 86.1678 47.3375 86.4521 46.6338C86.7365 45.9302 87.1627 45.2936 87.7038 44.7644C88.7918 43.7138 90.2408 43.1273 91.748 43.1273C93.2552 43.1273 94.7041 43.7138 95.7921 44.7644C96.3332 45.2936 96.7594 45.9302 97.0438 46.6338C97.3281 47.3375 97.4645 48.0929 97.4442 48.8523C97.4651 49.6118 97.329 50.3674 97.0446 51.0711C96.7602 51.7748 96.3337 52.4113 95.7921 52.9402V52.9402ZM89.4895 51.3339C89.7789 51.6452 90.1287 51.8934 90.5172 52.063C90.9056 52.2327 91.3245 52.3202 91.748 52.3202C92.1714 52.3202 92.5903 52.2327 92.9787 52.063C93.3672 51.8934 93.717 51.6452 94.0064 51.3339C94.3219 51.0054 94.569 50.6166 94.733 50.1904C94.897 49.7642 94.9747 49.3092 94.9613 48.8523C94.9754 48.3939 94.8982 47.9372 94.7341 47.5094C94.5701 47.0815 94.3227 46.691 94.0064 46.3611C93.7131 46.053 93.3611 45.8078 92.9713 45.6403C92.5815 45.4728 92.1622 45.3864 91.7384 45.3864C91.3147 45.3864 90.8953 45.4728 90.5055 45.6403C90.1158 45.8078 89.7637 46.053 89.4704 46.3611C89.1541 46.691 88.9067 47.0815 88.7427 47.5094C88.5787 47.9372 88.5014 48.3939 88.5155 48.8523C88.5034 49.3099 88.5825 49.7653 88.7482 50.1915C88.9139 50.6177 89.1627 51.0062 89.48 51.3339H89.4895ZM103.966 59.7118C102.822 59.7485 101.699 59.3886 100.786 58.6922C99.9759 58.0784 99.3375 57.2631 98.9339 56.326L101.111 55.4122C101.348 55.9722 101.719 56.4646 102.19 56.8454C102.695 57.2552 103.328 57.47 103.976 57.4514C104.387 57.4766 104.798 57.4123 105.182 57.2629C105.566 57.1135 105.914 56.8825 106.201 56.5857C106.776 55.8867 107.06 54.9904 106.994 54.0849V53.2577H106.908C106.544 53.693 106.084 54.037 105.565 54.2624C105.047 54.4878 104.483 54.5884 103.919 54.5562C103.202 54.5584 102.492 54.4108 101.835 54.1227C101.177 53.8346 100.586 53.4123 100.099 52.8825C99.5702 52.3569 99.1529 51.7288 98.8723 51.036C98.5916 50.3433 98.4534 49.6004 98.466 48.8523C98.4528 48.0998 98.5906 47.3524 98.8712 46.6549C99.1518 45.9574 99.5694 45.3242 100.099 44.7932C100.585 44.2612 101.175 43.8368 101.833 43.5471C102.491 43.2573 103.201 43.1084 103.919 43.11C104.526 43.1089 105.126 43.2436 105.676 43.5043C106.151 43.7134 106.575 44.0254 106.917 44.4181H107.003V43.5043H109.371V53.7482C109.434 54.5586 109.331 55.3732 109.07 56.1423C108.809 56.9113 108.395 57.6186 107.853 58.2209C107.337 58.7183 106.727 59.1064 106.06 59.3625C105.392 59.6186 104.68 59.7373 103.966 59.7118V59.7118ZM104.138 52.3246C104.546 52.3337 104.951 52.2522 105.324 52.0859C105.697 51.9197 106.029 51.6728 106.296 51.3628C106.886 50.6827 107.196 49.8025 107.165 48.9004C107.201 47.9831 106.89 47.0862 106.296 46.3899C106.029 46.0794 105.697 45.8321 105.324 45.6658C104.951 45.4996 104.546 45.4184 104.138 45.4281C103.719 45.4194 103.303 45.5007 102.918 45.6665C102.533 45.8324 102.187 46.079 101.904 46.3899C101.272 47.0612 100.929 47.9565 100.949 48.8812C100.939 49.3347 101.018 49.7858 101.182 50.2083C101.346 50.6309 101.591 51.0167 101.904 51.3435C102.186 51.6575 102.531 51.9074 102.916 52.0765C103.301 52.2457 103.718 52.3303 104.138 52.3246V52.3246ZM113.583 37.4157V54.2291H111.09V37.4157H113.583ZM120.42 54.5754C119.674 54.5947 118.931 54.4586 118.239 54.1756C117.548 53.8926 116.921 53.4687 116.4 52.9306C115.87 52.3965 115.454 51.7595 115.177 51.0584C114.9 50.3573 114.767 49.6068 114.786 48.8523C114.758 48.096 114.881 47.3417 115.148 46.6344C115.416 45.9271 115.822 45.2813 116.342 44.7355C116.833 44.2146 117.426 43.8027 118.084 43.5261C118.742 43.2495 119.45 43.1143 120.162 43.1292C120.818 43.1222 121.467 43.2499 122.072 43.5043C122.617 43.7258 123.113 44.0526 123.533 44.4662C123.894 44.8169 124.214 45.2073 124.488 45.6301C124.71 45.987 124.898 46.3637 125.052 46.7554L125.309 47.4095L117.67 50.5741C117.901 51.1088 118.287 51.5604 118.778 51.8695C119.269 52.1785 119.842 52.3305 120.42 52.3054C120.983 52.307 121.536 52.1616 122.027 51.8834C122.517 51.6053 122.928 51.2039 123.218 50.7183L125.128 52.0169C124.641 52.7192 124.017 53.3148 123.294 53.7675C122.435 54.3141 121.436 54.5951 120.42 54.5754V54.5754ZM117.231 48.6792L122.311 46.5534C122.154 46.1786 121.874 45.8695 121.518 45.6781C121.119 45.4513 120.668 45.3351 120.21 45.3415C119.433 45.3618 118.695 45.6901 118.157 46.2553C117.835 46.5657 117.585 46.9439 117.425 47.3629C117.265 47.7819 117.198 48.2314 117.231 48.6792V48.6792ZM138.363 54.5754C137.303 54.5938 136.251 54.3963 135.268 53.9948C134.286 53.5932 133.394 52.9958 132.647 52.2385C131.9 51.4812 131.312 50.5796 130.919 49.5878C130.526 48.596 130.336 47.5344 130.361 46.4669C130.336 45.3993 130.526 44.3378 130.919 43.346C131.312 42.3542 131.9 41.4526 132.647 40.6953C133.394 39.938 134.286 39.3406 135.268 38.939C136.251 38.5374 137.303 38.3399 138.363 38.3583C139.436 38.3246 140.503 38.5354 141.483 38.9751C142.464 39.4148 143.333 40.072 144.026 40.8977L142.651 42.2443C142.142 41.5997 141.49 41.0852 140.746 40.7426C140.003 40.4 139.19 40.2389 138.373 40.2725C137.587 40.2546 136.805 40.3971 136.075 40.6913C135.344 40.9855 134.681 41.4254 134.123 41.9846C133.544 42.5713 133.092 43.2724 132.794 44.0438C132.497 44.8151 132.361 45.6401 132.395 46.4669C132.361 47.2937 132.497 48.1186 132.794 48.89C133.092 49.6614 133.544 50.3624 134.123 50.9492C134.681 51.5083 135.344 51.9482 136.075 52.2425C136.805 52.5367 137.587 52.6791 138.373 52.6613C139.286 52.6716 140.189 52.4746 141.015 52.0849C141.842 51.6953 142.571 51.123 143.148 50.4105L144.523 51.7956C143.803 52.6628 142.899 53.3564 141.878 53.8252C140.777 54.3371 139.576 54.5935 138.363 54.5754V54.5754ZM148.218 54.2291H146.242V38.695H148.218V54.2291ZM151.446 44.8798C152.482 43.8437 153.882 43.2622 155.342 43.2622C156.802 43.2622 158.203 43.8437 159.238 44.8798C159.745 45.4185 160.141 46.0527 160.403 46.746C160.665 47.4393 160.789 48.1781 160.766 48.9196C160.789 49.6612 160.665 50.3999 160.403 51.0933C160.141 51.7866 159.745 52.4208 159.238 52.9595C158.203 53.9956 156.802 54.5771 155.342 54.5771C153.882 54.5771 152.482 53.9956 151.446 52.9595C150.94 52.4208 150.544 51.7866 150.282 51.0933C150.019 50.3999 149.896 49.6612 149.918 48.9196C149.896 48.1781 150.019 47.4393 150.282 46.746C150.544 46.0527 150.94 45.4185 151.446 44.8798V44.8798ZM152.917 51.7091C153.228 52.0406 153.603 52.3047 154.02 52.4852C154.436 52.6656 154.884 52.7587 155.337 52.7587C155.791 52.7587 156.239 52.6656 156.655 52.4852C157.071 52.3047 157.447 52.0406 157.758 51.7091C158.104 51.3356 158.372 50.8967 158.547 50.4178C158.723 49.9389 158.802 49.4296 158.78 48.9196C158.802 48.4097 158.723 47.9004 158.547 47.4215C158.372 46.9426 158.104 46.5037 157.758 46.1302C157.447 45.7987 157.071 45.5346 156.655 45.3541C156.239 45.1736 155.791 45.0806 155.337 45.0806C154.884 45.0806 154.436 45.1736 154.02 45.3541C153.603 45.5346 153.228 45.7987 152.917 46.1302C152.571 46.5037 152.303 46.9426 152.127 47.4215C151.952 47.9004 151.873 48.4097 151.895 48.9196C151.876 49.4287 151.957 49.9365 152.134 50.4137C152.311 50.8909 152.58 51.3279 152.926 51.6994L152.917 51.7091ZM171.719 54.2291H169.81V52.7575H169.752C169.412 53.3164 168.931 53.7745 168.358 54.0849C167.763 54.4321 167.088 54.6146 166.4 54.6139C165.842 54.6524 165.283 54.5633 164.764 54.3535C164.244 54.1436 163.779 53.8183 163.402 53.4019C162.679 52.4803 162.315 51.3239 162.38 50.1508V43.6101H164.357V49.7853C164.357 51.7668 165.226 52.7575 166.964 52.7575C167.35 52.7696 167.733 52.6887 168.082 52.5214C168.431 52.354 168.735 52.1052 168.969 51.7956C169.482 51.1416 169.755 50.3298 169.743 49.4968V43.6101H171.719V54.2291ZM178.433 54.5754C177.762 54.5777 177.099 54.4335 176.489 54.1529C175.879 53.8723 175.337 53.4618 174.899 52.9499C173.909 51.8485 173.379 50.4049 173.419 48.9196C173.379 47.4344 173.909 45.9908 174.899 44.8894C175.337 44.3774 175.879 43.967 176.489 43.6864C177.099 43.4058 177.762 43.2616 178.433 43.2639C179.184 43.2519 179.926 43.4305 180.591 43.7833C181.175 44.0793 181.67 44.5278 182.023 45.0818H182.109L182.023 43.6101V38.695H184V54.2291H182.09V52.7575H182.004C181.651 53.3115 181.156 53.7599 180.572 54.056C179.913 54.4056 179.178 54.5841 178.433 54.5754V54.5754ZM178.757 52.7575C179.204 52.764 179.647 52.6748 180.057 52.4957C180.467 52.3166 180.835 52.0517 181.135 51.7187C181.807 50.9485 182.15 49.9429 182.09 48.9196C182.15 47.8964 181.807 46.8907 181.135 46.1206C180.833 45.7857 180.464 45.5182 180.053 45.3351C179.642 45.1521 179.197 45.0575 178.748 45.0575C178.298 45.0575 177.854 45.1521 177.443 45.3351C177.032 45.5182 176.663 45.7857 176.36 46.1206C176.027 46.4994 175.771 46.9408 175.607 47.4194C175.443 47.8981 175.375 48.4047 175.406 48.91C175.375 49.4154 175.443 49.9219 175.607 50.4006C175.771 50.8793 176.027 51.3206 176.36 51.6994C176.661 52.0385 177.031 52.3084 177.445 52.4909C177.858 52.6735 178.306 52.7644 178.757 52.7575V52.7575Z" fill="#5F6368"/>
</svg>
